<svg xmlns="http://www.w3.org/2000/svg" width="27" height="26" viewBox="0 0 27 26"><path fill="#bdbdbd" d="M22.06 20.8c-1.21 0-2.25.9-2.47 2.07H9.7a2.54 2.54 0 0 0-2.42-2.07l-.5-3.46h16.85l.09-.31L26.96 4.4H4.99L4.4.22h-.04V0H0v.9h3.59l1.76 12.53.45 3.91h.09l.49 3.64a2.54 2.54 0 0 0-1.66 2.34 2.5 2.5 0 0 0 4.98.45h9.89a2.51 2.51 0 0 0 4.99-.45 2.55 2.55 0 0 0-2.52-2.52zM5.3 5.26h20.53l-2.87 11.18H6.69l-.45-3.14zm3.1 19.18a1.5 1.5 0 0 1-1.12.49c-.45 0-.86-.17-1.12-.49a1.5 1.5 0 0 1-.5-1.12c0-.45.18-.86.5-1.13a1.53 1.53 0 0 1 2.24 0c.32.32.5.68.5 1.13 0 .45-.18.85-.5 1.12zm14.78 0a1.5 1.5 0 0 1-1.12.49c-.45 0-.85-.17-1.12-.49a1.5 1.5 0 0 1-.5-1.12c0-.45.18-.86.5-1.13a1.53 1.53 0 0 1 2.24 0c.32.32.5.68.5 1.13 0 .45-.18.85-.5 1.12z"/></svg>