<?xml version="1.0" encoding="utf-8"?>
<!-- Generator: Adobe Illustrator 21.0.0, SVG Export Plug-In . SVG Version: 6.00 Build 0)  -->
<!DOCTYPE svg PUBLIC "-//W3C//DTD SVG 1.1//EN" "http://www.w3.org/Graphics/SVG/1.1/DTD/svg11.dtd">
<svg version="1.1" id="Layer_1" xmlns="http://www.w3.org/2000/svg" xmlns:xlink="http://www.w3.org/1999/xlink" x="0px" y="0px"
	 viewBox="0 0 12 12" style="enable-background:new 0 0 12 12;" xml:space="preserve">
<style type="text/css">
	.st0{fill:#070707;}
</style>
<path class="st0" d="M1.5,0.3C0.7-0.5-0.6,0.5,0.3,1.6L4,5.1L4.8,6l-4.5,4.4c-0.4,0.3-0.4,0.9-0.1,1.3c0.4,0.4,0.9,0.4,1.3,0
	l5.1-4.9c0.5-0.5,0.5-1.1,0-1.6"/>
<path class="st0" d="M5.3,5.2c-0.5,0.5-0.4,1.1,0,1.6l5.1,4.9c0.3,0.4,0.9,0.4,1.3,0c0.3-0.4,0.3-1-0.1-1.3L7.1,6L8,5.1l3.7-3.5
	c0.9-1.1-0.4-2-1.2-1.3"/>
</svg>
