<svg xmlns="http://www.w3.org/2000/svg" width="54" height="59" viewBox="0 0 54 59"><path fill="#221f20" d="M0 50v7.75h1.75v-2.97h4.73V53.2H1.75v-1.62H7.1V50zM10 50v7.75h7.22v-1.61h-5.47V54.6h4.75v-1.59h-4.75v-1.43h5.28V50zM21.75 56.17h3.56c.56 0 .89-.35.89-.83 0-.5-.35-.83-.85-.83h-3.6zm0-3.18h3.29c.38 0 .63-.35.63-.71 0-.33-.18-.71-.77-.71h-3.15zM24.98 50c1.4 0 2.4.81 2.4 2.08 0 .56-.2 1.03-.6 1.31.71.37 1.13 1 1.13 1.95 0 1.33-1.08 2.41-2.55 2.41H20V50zM31.75 54.43h2.74c.9 0 1.52-.49 1.52-1.39 0-.89-.62-1.44-1.52-1.44h-2.74zM34.56 50c1.83 0 3.2 1.22 3.2 3.04 0 1.19-.59 2.09-1.5 2.58l1.19 2.13h-1.9l-.92-1.72h-2.88v1.72H30V50zM40 57.75h1.75V50H40zM51.96 52.44a5.03 5.03 0 0 0-3.07-.88c-1.51 0-1.87.39-1.87.82 0 .45.4.56 1 .63l2.33.27c1.65.2 2.67.9 2.67 2.33 0 1.74-1.69 2.52-4.02 2.52a6.14 6.14 0 0 1-4-1.25l.83-1.36a5.5 5.5 0 0 0 3.37 1.08c1.23 0 2.13-.3 2.13-.96 0-.42-.23-.64-.88-.71l-2.61-.29c-1.58-.18-2.55-.8-2.55-2.24 0-1.64 1.63-2.4 3.6-2.4 1.44 0 2.71.25 3.91 1.15z"/><path fill="#ede709" d="M30.85 8H10V39.31h10.42V28.87h10.43V18.44h10.42V8z"/><path fill="#221f20" d="M41 8.07L43.01 0h6.88l-4.03 8.07z"/></svg>