<svg xmlns="http://www.w3.org/2000/svg" width="19" height="19" viewBox="0 0 19 19"><path fill="#2b2b2b" d="M18.77 16.97l-4.18-4.01a7.16 7.16 0 0 0 1.71-3.28v-.01c.13-.57.2-1.15.2-1.76 0-2.19-.81-4.06-2.43-5.61A8.12 8.12 0 0 0 8.25 0C5.97 0 4.02.77 2.4 2.3A7.53 7.53 0 0 0 0 7.91c0 2.18.8 4.04 2.4 5.58a8.15 8.15 0 0 0 5.85 2.32c2.03 0 3.79-.61 5.27-1.83l4.19 4.01c.15.15.33.22.54.22.21 0 .38-.07.52-.22.16-.13.23-.3.23-.5s-.07-.37-.23-.52zM13.01 3.32a6.4 6.4 0 0 1 1.83 6.05 6.1 6.1 0 0 1-1.82 3.09l-.02.02a6.6 6.6 0 0 1-4.75 1.89 6.67 6.67 0 0 1-4.79-1.9A6.06 6.06 0 0 1 1.5 7.91c0-1.79.65-3.32 1.96-4.59a6.7 6.7 0 0 1 4.79-1.88 6.6 6.6 0 0 1 4.76 1.88z"/></svg>