<svg xmlns="http://www.w3.org/2000/svg" width="17" height="17" viewBox="0 0 17 17"><path d="M16.8 15.85l-3.75-3.75a6.77 6.77 0 0 0 1.53-3.06v-.01c.12-.53.18-1.08.18-1.65a7.1 7.1 0 0 0-2.17-5.23A7.1 7.1 0 0 0 7.38 0C5.34 0 3.59.72 2.15 2.15A7.16 7.16 0 0 0 0 7.38a7.1 7.1 0 0 0 2.15 5.21 7.1 7.1 0 0 0 5.23 2.17c1.82 0 3.39-.57 4.72-1.71l3.75 3.75c.13.13.29.2.48.2.18 0 .34-.07.47-.2.13-.13.2-.29.2-.47a.66.66 0 0 0-.2-.48zM11.64 3.1a5.8 5.8 0 0 1 1.78 4.28 5.73 5.73 0 0 1-1.77 4.25l-.02.02a5.75 5.75 0 0 1-4.25 1.77 5.8 5.8 0 0 1-4.28-1.78 5.8 5.8 0 0 1-1.76-4.26c0-1.67.59-3.1 1.76-4.28a5.87 5.87 0 0 1 4.28-1.76 5.8 5.8 0 0 1 4.26 1.76z"/></svg>